<?xml version="1.0" encoding="UTF-8" standalone="no"?>
<svg xmlns="http://www.w3.org/2000/svg" xmlns:xlink="http://www.w3.org/1999/xlink" xmlns:serif="http://www.serif.com/"
     width="587"
     height="303"
     viewBox="0 0 587 303" version="1.1" xml:space="preserve"
     style="fill-rule:evenodd;clip-rule:evenodd;stroke-linejoin:round;stroke-miterlimit:2;"> <g
        transform="matrix(1,0,0,1,-425,-271)"> <g> <g transform="matrix(1,0,0,1,210.22,92.2633)"> <g
        transform="matrix(4.10795,0,0,4.10795,215.118,178.941)"> <path
        d="M24.139,7.551L16.79,7.551C16.395,7.551 16.053,7.824 15.967,8.209L9.968,34.85C8.899,39.599 3.905,39.958 2.034,39.922C1.621,39.914 1.265,40.204 1.189,40.61L0.014,46.913C-0.078,47.408 0.285,47.873 0.787,47.911C14.631,48.954 17.768,40.529 18.196,38.632L24.962,8.58C25.081,8.052 24.68,7.551 24.139,7.551ZM68.874,14.227L61.524,14.227C61.13,14.227 60.788,14.501 60.701,14.886L53.516,46.798C53.398,47.325 53.798,47.826 54.339,47.826L61.689,47.826C62.083,47.826 62.425,47.553 62.512,47.168L69.697,15.256C69.816,14.729 69.414,14.227 68.874,14.227ZM55.589,14.227L48.239,14.227C47.845,14.227 47.503,14.501 47.416,14.886L43.285,33.231C41.968,39.083 39.036,39.833 35.837,39.883C32.638,39.932 31.717,37.408 32.16,35.442L36.705,15.256C36.823,14.729 36.422,14.227 35.882,14.227L28.532,14.227C28.138,14.227 27.796,14.501 27.709,14.886L23.468,33.722C23.279,34.56 21.032,47.826 34.439,47.826C47.847,47.826 50.728,40.497 51.148,38.632L56.412,15.256C56.531,14.729 56.129,14.227 55.589,14.227ZM121.57,16.732C111.827,10.27 103.37,17.917 100.999,21.683C99.03,24.822 96.435,31.123 97.018,36.842C97.418,40.824 99.76,47.501 110.22,47.505C117.28,47.505 120.823,44.599 121.979,43.401C122.249,43.123 122.291,42.701 122.088,42.372L119.6,38.365C119.338,37.947 118.774,37.833 118.381,38.133C117.226,39.019 114.56,40.487 109.967,40.061C106.099,39.702 105.141,36.75 105.686,32.966L125.1,32.966C125.492,32.966 125.838,32.696 125.923,32.313C127.268,26.188 126.015,22.523 125.294,21.038C124.509,19.431 123.35,17.913 121.57,16.732ZM91.374,23.939C91.643,24.282 92.122,24.378 92.492,24.148L96.821,21.451C97.204,21.212 97.334,20.712 97.112,20.319C96.354,18.976 95.275,17.736 93.761,16.733C84.015,10.27 75.56,17.916 73.191,21.685C71.219,24.822 68.626,31.121 69.206,36.842C69.611,40.825 71.952,47.499 82.412,47.503C89.471,47.507 93.012,44.598 94.169,43.403C94.439,43.124 94.483,42.7 94.279,42.371L91.789,38.367C91.528,37.948 90.962,37.835 90.57,38.135C89.415,39.017 86.749,40.485 82.156,40.059C77.071,39.588 77.017,34.634 78.794,29.196C81.071,22.226 87.576,19.104 91.374,23.939ZM118.179,26.424L108.106,26.424C107.44,26.424 107.031,25.682 107.398,25.125C108.448,23.531 110.616,21.038 113.923,21.038C117.909,21.038 118.816,23.927 119.014,25.475C119.081,25.977 118.685,26.424 118.179,26.424Z"
        style="fill:rgb(8,183,126);fill-rule:nonzero;"></path> </g>
    <g transform="matrix(4.10795,0,0,4.10795,215.118,178.941)"> <path
            d="M142.31,9.485L141.007,9.146C137.32,8.186 134.439,5.306 133.479,1.618L133.141,0.316C133.031,-0.105 132.434,-0.105 132.324,0.316L131.985,1.618C131.025,5.306 128.145,8.186 124.457,9.146L123.155,9.485C122.734,9.594 122.734,10.192 123.155,10.301L124.457,10.64C128.145,11.6 131.025,14.48 131.985,18.168L132.324,19.47C132.434,19.891 133.031,19.891 133.141,19.47L133.479,18.168C134.439,14.48 137.32,11.6 141.007,10.64L142.31,10.301C142.731,10.192 142.731,9.594 142.31,9.485Z"
            style="fill:rgb(8,183,126);fill-rule:nonzero;"></path> </g> </g>
    <g transform="matrix(6.36007,0,0,6.36007,-2499.89,-4263.42)"> <path
            d="M463.381,758.282C462.918,758.282 462.531,758.202 462.222,758.042C461.913,757.881 461.659,757.676 461.463,757.427L461.463,757.874C461.463,757.957 461.435,758.026 461.381,758.081C461.326,758.135 461.258,758.162 461.174,758.162L460.224,758.162C460.141,758.162 460.072,758.135 460.018,758.081C459.963,758.026 459.936,757.957 459.936,757.874L459.936,749.931C459.936,749.847 459.963,749.779 460.018,749.724C460.072,749.67 460.141,749.642 460.224,749.642L461.247,749.642C461.331,749.642 461.4,749.67 461.454,749.724C461.509,749.779 461.536,749.847 461.536,749.931L461.536,752.594C461.733,752.366 461.982,752.177 462.283,752.027C462.584,751.877 462.95,751.802 463.381,751.802C463.804,751.802 464.172,751.875 464.484,752.02C464.796,752.165 465.057,752.367 465.269,752.624C465.48,752.881 465.642,753.183 465.754,753.528C465.866,753.874 465.928,754.247 465.939,754.648C465.947,754.791 465.951,754.92 465.951,755.037C465.951,755.154 465.947,755.286 465.939,755.432C465.925,755.846 465.862,756.226 465.749,756.573C465.637,756.921 465.475,757.222 465.264,757.478C465.053,757.733 464.792,757.931 464.481,758.072C464.171,758.212 463.804,758.282 463.381,758.282ZM462.934,756.996C463.276,756.996 463.544,756.923 463.738,756.777C463.932,756.631 464.072,756.437 464.158,756.195C464.244,755.953 464.294,755.689 464.31,755.403C464.325,755.162 464.325,754.922 464.31,754.682C464.294,754.395 464.244,754.131 464.158,753.89C464.072,753.648 463.932,753.454 463.738,753.308C463.544,753.161 463.276,753.088 462.934,753.088C462.617,753.088 462.358,753.16 462.155,753.303C461.952,753.446 461.8,753.628 461.699,753.849C461.598,754.07 461.544,754.301 461.536,754.543C461.528,754.686 461.524,754.838 461.524,754.999C461.524,755.16 461.528,755.314 461.536,755.46C461.549,755.713 461.601,755.957 461.694,756.192C461.787,756.426 461.935,756.619 462.137,756.77C462.339,756.921 462.605,756.996 462.934,756.996Z"
            style="fill:rgb(184,189,195);fill-rule:nonzero;"></path>
        <path d="M467.79,760.442C467.723,760.442 467.664,760.418 467.615,760.37C467.565,760.322 467.54,760.265 467.54,760.197C467.54,760.172 467.544,760.144 467.551,760.115C467.558,760.085 467.57,760.049 467.588,760.006L468.527,757.788L466.225,752.358C466.193,752.277 466.177,752.219 466.177,752.182C466.184,752.111 466.212,752.05 466.261,751.999C466.311,751.948 466.371,751.922 466.442,751.922L467.415,751.922C467.511,751.922 467.584,751.946 467.633,751.993C467.682,752.041 467.716,752.092 467.735,752.146L469.332,756.079L470.972,752.146C470.999,752.088 471.037,752.037 471.085,751.991C471.133,751.945 471.205,751.922 471.301,751.922L472.258,751.922C472.325,751.922 472.384,751.947 472.436,751.997C472.487,752.046 472.512,752.103 472.512,752.167C472.512,752.21 472.497,752.274 472.465,752.358L469.067,760.218C469.039,760.276 469.001,760.328 468.951,760.374C468.901,760.419 468.828,760.442 468.732,760.442L467.79,760.442Z"
              style="fill:rgb(184,189,195);fill-rule:nonzero;"></path>
        <path d="M476.247,758.162C476.163,758.162 476.095,758.135 476.04,758.081C475.986,758.026 475.958,757.957 475.958,757.874L475.958,750.058C475.958,749.97 475.986,749.899 476.04,749.844C476.095,749.79 476.163,749.762 476.247,749.762L479.455,749.762C480.083,749.762 480.63,749.861 481.094,750.059C481.558,750.257 481.918,750.553 482.175,750.949C482.433,751.345 482.561,751.839 482.561,752.432C482.561,753.024 482.433,753.515 482.175,753.904C481.918,754.294 481.558,754.584 481.094,754.775C480.63,754.966 480.083,755.062 479.455,755.062L477.675,755.062L477.675,757.874C477.675,757.957 477.647,758.026 477.593,758.081C477.538,758.135 477.467,758.162 477.379,758.162L476.247,758.162ZM477.65,753.732L479.395,753.732C479.86,753.732 480.218,753.622 480.469,753.401C480.72,753.18 480.845,752.853 480.845,752.422C480.845,752.023 480.729,751.702 480.496,751.46C480.263,751.218 479.896,751.097 479.395,751.097L477.65,751.097L477.65,753.732Z"
              style="fill:rgb(184,189,195);fill-rule:nonzero;"></path>
        <path d="M485.052,758.282C484.638,758.282 484.264,758.201 483.929,758.037C483.593,757.874 483.327,757.655 483.128,757.378C482.93,757.102 482.831,756.791 482.831,756.446C482.831,755.885 483.058,755.44 483.513,755.111C483.967,754.781 484.566,754.56 485.309,754.448L486.951,754.208L486.951,753.954C486.951,753.618 486.867,753.358 486.698,753.174C486.529,752.99 486.242,752.898 485.836,752.898C485.544,752.898 485.308,752.956 485.128,753.071C484.948,753.186 484.814,753.338 484.724,753.528C484.665,753.635 484.574,753.688 484.452,753.688L483.51,753.688C483.42,753.688 483.353,753.663 483.308,753.613C483.263,753.562 483.242,753.499 483.246,753.424C483.249,753.296 483.3,753.141 483.399,752.958C483.497,752.775 483.65,752.596 483.857,752.421C484.064,752.246 484.331,752.099 484.658,751.98C484.985,751.862 485.381,751.802 485.846,751.802C486.347,751.802 486.771,751.864 487.118,751.987C487.465,752.11 487.744,752.277 487.953,752.487C488.162,752.698 488.315,752.943 488.412,753.222C488.508,753.5 488.556,753.794 488.556,754.102L488.556,757.874C488.556,757.957 488.529,758.026 488.474,758.081C488.42,758.135 488.351,758.162 488.268,758.162L487.293,758.162C487.21,758.162 487.141,758.135 487.087,758.081C487.032,758.026 487.005,757.957 487.005,757.874L487.005,757.403C486.903,757.553 486.764,757.695 486.59,757.827C486.415,757.96 486.202,758.069 485.951,758.154C485.699,758.24 485.399,758.282 485.052,758.282ZM485.459,757.148C485.743,757.148 485.998,757.087 486.226,756.966C486.454,756.845 486.634,756.658 486.767,756.404C486.9,756.15 486.966,755.831 486.966,755.447L486.966,755.2L485.759,755.391C485.285,755.463 484.934,755.579 484.705,755.74C484.476,755.901 484.362,756.097 484.362,756.327C484.362,756.507 484.415,756.657 484.519,756.778C484.624,756.899 484.761,756.99 484.928,757.053C485.096,757.116 485.273,757.148 485.459,757.148Z"
              style="fill:rgb(184,189,195);fill-rule:nonzero;"></path>
        <path d="M489.965,758.162C489.882,758.162 489.813,758.135 489.759,758.081C489.704,758.026 489.677,757.957 489.677,757.874L489.677,752.211C489.677,752.127 489.704,752.059 489.759,752.004C489.813,751.95 489.882,751.922 489.965,751.922L490.94,751.922C491.023,751.922 491.092,751.95 491.146,752.004C491.201,752.059 491.228,752.127 491.228,752.211L491.228,752.706C491.437,752.446 491.705,752.23 492.031,752.059C492.357,751.888 492.758,751.802 493.234,751.802C493.723,751.802 494.147,751.911 494.506,752.13C494.865,752.348 495.143,752.658 495.339,753.06C495.535,753.463 495.633,753.944 495.633,754.505L495.633,757.874C495.633,757.957 495.606,758.026 495.552,758.081C495.497,758.135 495.428,758.162 495.345,758.162L494.293,758.162C494.21,758.162 494.141,758.135 494.086,758.081C494.032,758.026 494.004,757.957 494.004,757.874L494.004,754.575C494.004,754.107 493.891,753.742 493.663,753.481C493.436,753.219 493.105,753.088 492.671,753.088C492.255,753.088 491.923,753.219 491.674,753.481C491.426,753.742 491.301,754.107 491.301,754.575L491.301,757.874C491.301,757.957 491.274,758.026 491.219,758.081C491.165,758.135 491.096,758.162 491.013,758.162L489.965,758.162Z"
              style="fill:rgb(184,189,195);fill-rule:nonzero;"></path>
        <path d="M499.067,758.282C498.651,758.282 498.287,758.212 497.972,758.072C497.658,757.931 497.395,757.733 497.184,757.478C496.973,757.222 496.812,756.921 496.702,756.573C496.592,756.226 496.528,755.846 496.508,755.432C496.5,755.286 496.496,755.154 496.496,755.037C496.496,754.92 496.5,754.791 496.508,754.648C496.524,754.247 496.587,753.874 496.697,753.528C496.807,753.183 496.968,752.881 497.179,752.624C497.39,752.367 497.654,752.165 497.97,752.02C498.286,751.875 498.651,751.802 499.067,751.802C499.498,751.802 499.864,751.877 500.165,752.027C500.466,752.177 500.715,752.366 500.912,752.594L500.912,749.931C500.912,749.847 500.939,749.779 500.994,749.724C501.048,749.67 501.117,749.642 501.2,749.642L502.223,749.642C502.307,749.642 502.375,749.67 502.43,749.724C502.484,749.779 502.512,749.847 502.512,749.931L502.512,757.874C502.512,757.957 502.484,758.026 502.43,758.081C502.375,758.135 502.307,758.162 502.223,758.162L501.273,758.162C501.19,758.162 501.121,758.135 501.067,758.081C501.012,758.026 500.985,757.957 500.985,757.874L500.985,757.427C500.788,757.676 500.535,757.881 500.226,758.042C499.917,758.202 499.53,758.282 499.067,758.282ZM499.514,756.996C499.846,756.996 500.113,756.921 500.313,756.77C500.514,756.619 500.662,756.426 500.757,756.192C500.852,755.957 500.904,755.713 500.912,755.46C500.923,755.314 500.929,755.16 500.929,754.999C500.929,754.838 500.923,754.686 500.912,754.543C500.904,754.301 500.849,754.07 500.748,753.849C500.647,753.628 500.497,753.446 500.296,753.303C500.096,753.16 499.835,753.088 499.514,753.088C499.18,753.088 498.914,753.161 498.716,753.308C498.518,753.454 498.376,753.648 498.29,753.89C498.204,754.131 498.153,754.395 498.137,754.682C498.123,754.922 498.123,755.162 498.137,755.403C498.153,755.689 498.204,755.953 498.29,756.195C498.376,756.437 498.518,756.631 498.716,756.777C498.914,756.923 499.18,756.996 499.514,756.996Z"
              style="fill:rgb(184,189,195);fill-rule:nonzero;"></path>
        <path d="M505.524,758.282C505.11,758.282 504.736,758.201 504.401,758.037C504.065,757.874 503.799,757.655 503.6,757.378C503.402,757.102 503.303,756.791 503.303,756.446C503.303,755.885 503.53,755.44 503.985,755.111C504.439,754.781 505.038,754.56 505.781,754.448L507.423,754.208L507.423,753.954C507.423,753.618 507.339,753.358 507.17,753.174C507.001,752.99 506.714,752.898 506.308,752.898C506.016,752.898 505.78,752.956 505.6,753.071C505.42,753.186 505.286,753.338 505.196,753.528C505.137,753.635 505.046,753.688 504.924,753.688L503.982,753.688C503.892,753.688 503.825,753.663 503.78,753.613C503.735,753.562 503.714,753.499 503.718,753.424C503.721,753.296 503.772,753.141 503.871,752.958C503.969,752.775 504.122,752.596 504.329,752.421C504.536,752.246 504.803,752.099 505.13,751.98C505.457,751.862 505.853,751.802 506.318,751.802C506.819,751.802 507.243,751.864 507.59,751.987C507.937,752.11 508.216,752.277 508.425,752.487C508.634,752.698 508.787,752.943 508.884,753.222C508.98,753.5 509.028,753.794 509.028,754.102L509.028,757.874C509.028,757.957 509.001,758.026 508.946,758.081C508.892,758.135 508.823,758.162 508.74,758.162L507.765,758.162C507.682,758.162 507.613,758.135 507.559,758.081C507.504,758.026 507.477,757.957 507.477,757.874L507.477,757.403C507.375,757.553 507.236,757.695 507.062,757.827C506.887,757.96 506.674,758.069 506.423,758.154C506.171,758.24 505.871,758.282 505.524,758.282ZM505.931,757.148C506.215,757.148 506.47,757.087 506.698,756.966C506.926,756.845 507.106,756.658 507.239,756.404C507.372,756.15 507.438,755.831 507.438,755.447L507.438,755.2L506.231,755.391C505.757,755.463 505.406,755.579 505.177,755.74C504.948,755.901 504.834,756.097 504.834,756.327C504.834,756.507 504.887,756.657 504.991,756.778C505.096,756.899 505.233,756.99 505.4,757.053C505.568,757.116 505.745,757.148 505.931,757.148Z"
              style="fill:rgb(184,189,195);fill-rule:nonzero;"></path> </g> </g> </g> </svg>
