<svg width="174" height="40" viewBox="0 0 174 40" fill="none" xmlns="http://www.w3.org/2000/svg">
    <path d="M62.5908 20.0249C62.5908 17.7372 60.994 16.7758 57.8004 16.7758C57.1351 16.7758 55.5383 16.8421 54.9561 16.8918V23.7381C55.4718 23.7712 57.2515 23.821 57.8004 23.821C61.0772 23.821 62.5908 22.9755 62.5908 20.2901V20.0249ZM67.3812 36.005H63.489C63.1397 36.005 63.0066 35.7066 62.8569 35.3916L58.2662 27.2689H57.8171C56.9854 27.2689 55.7046 27.1861 54.9728 27.1529V35.4082C54.9728 35.7397 54.7233 36.0215 54.374 36.0215H51.1804C50.8311 36.0215 50.5483 35.7397 50.5483 35.4082V14.455C50.5483 13.8417 50.9309 13.6262 51.563 13.5433C53.2263 13.2946 55.4884 13.1454 57.8171 13.1454C62.7239 13.1454 66.9986 14.8197 66.9986 20.0249V20.3067C66.9986 23.5391 65.302 25.5449 62.6906 26.523L67.6972 35.4082C67.7637 35.4911 67.7637 35.5905 67.7637 35.6568C67.7637 35.8558 67.6307 36.005 67.3812 36.005Z"
          fill="rgb(35,28,48)"/>
    <path d="M83.1993 35.2259H80.222C79.8727 35.2259 79.5733 34.9606 79.5733 34.6291V33.9329C77.8933 34.9606 76.5627 35.4414 74.5001 35.4414C72.8867 35.4414 71.4563 35.0435 70.5248 34.1815C69.3272 33.0709 68.9114 31.2143 68.9114 28.7112V18.9142C68.9114 18.5827 69.2108 18.2843 69.5601 18.2843H72.5374C72.8867 18.2843 73.1861 18.5827 73.1861 18.9142V28.7112C73.1861 30.2197 73.3192 31.0817 73.9346 31.5955C74.3837 31.9602 74.9326 32.1426 75.9306 32.1426C77.1282 32.1426 78.6751 31.3966 79.5899 30.949V18.9308C79.5899 18.5993 79.8893 18.3009 80.2386 18.3009H83.2159C83.5652 18.3009 83.8646 18.5993 83.8646 18.9308V34.6291C83.848 34.9606 83.5486 35.2259 83.1993 35.2259Z"
          fill="rgb(35,28,48)"/>
    <path d="M100.415 35.4414H97.4373C97.088 35.4414 96.7886 35.143 96.7886 34.8115V25.0145C96.7886 22.3954 96.5225 21.6494 94.0441 21.6494C92.9464 21.6494 91.7488 22.0639 90.3848 22.7269V34.8115C90.3848 35.143 90.0854 35.4414 89.7361 35.4414H86.7588C86.4095 35.4414 86.1101 35.143 86.1101 34.8115V19.1132C86.1101 18.7816 86.4095 18.5164 86.7588 18.5164H89.5698C89.9191 18.5164 90.2185 18.7816 90.2185 19.1132V19.7431C92.0981 18.6324 93.3123 18.3009 95.458 18.3009C100.115 18.3009 101.047 21.2184 101.047 25.0311V34.8115C101.063 35.1264 100.781 35.4414 100.415 35.4414Z"
          fill="rgb(35,28,48)"/>
    <path d="M113.987 25.545C113.987 23.1579 112.59 21.782 110.578 21.782C108.565 21.782 107.101 23.1248 107.101 25.545V25.661H113.971V25.545H113.987ZM117.647 28.5454H107.068V28.6449C107.068 30.4186 107.85 32.5404 110.96 32.5404C113.322 32.5404 115.568 32.3581 116.931 32.2255H117.031C117.347 32.2255 117.613 32.3747 117.613 32.6896V34.712C117.613 35.2093 117.514 35.4082 116.931 35.5077C114.819 35.8724 113.555 36.0216 110.644 36.0216C107.401 36.0216 102.793 34.3639 102.793 28.3465V26.0755C102.793 21.3013 105.621 18.3009 110.578 18.3009C115.568 18.3009 118.295 21.5168 118.295 26.0755V27.7829C118.295 28.2636 118.096 28.5454 117.647 28.5454Z"
          fill="rgb(35,28,48)"/>
    <path d="M131.402 35.6071C130.671 35.7895 129.24 36.005 127.294 36.005C123.152 36.005 120.025 33.5516 120.025 28.5619V25.7107C120.025 20.7211 123.152 18.2677 127.294 18.2677C129.24 18.2677 130.671 18.4832 131.402 18.6655C131.951 18.7816 132.068 18.9639 132.068 19.4612V21.4505C132.068 21.7488 131.818 21.9146 131.502 21.9146H131.402C130.122 21.7654 129.356 21.6991 127.294 21.6991C125.797 21.6991 124.233 22.528 124.233 25.7107V28.5619C124.233 31.7447 125.797 32.5735 127.294 32.5735C129.373 32.5735 130.138 32.5072 131.402 32.358H131.502C131.818 32.358 132.068 32.5072 132.068 32.8222V34.8114C132.084 35.3087 131.951 35.4911 131.402 35.6071Z"
          fill="#F3951F"/>
    <path d="M143.262 28.1807H141.199C138.222 28.1807 137.573 29.0758 137.573 30.7833V30.8993C137.573 32.3912 138.288 32.7891 139.935 32.7891C141.116 32.7891 142.314 32.4244 143.278 31.9271V28.1807H143.262ZM146.921 35.7563H144.143C143.777 35.7563 143.495 35.4745 143.495 35.143V34.6457C141.998 35.5077 140.451 35.9884 138.887 35.9884C136.176 35.9884 133.232 35.0104 133.232 30.8827V30.7667C133.232 27.2855 135.527 25.4787 141.216 25.4787H143.278V24.1359C143.278 22.1467 142.33 21.6494 140.401 21.6494C138.305 21.6494 136.143 21.7654 135.078 21.8981H134.912C134.579 21.8981 134.33 21.7986 134.33 21.3842V19.4281C134.33 19.0966 134.529 18.8811 134.945 18.7816C136.259 18.533 138.155 18.2843 140.401 18.2843C145.042 18.2843 147.603 20.2072 147.603 24.1359V35.143C147.586 35.4911 147.287 35.7563 146.921 35.7563Z"
          fill="#F3951F"/>
    <path d="M155.454 36.005C154.157 36.005 151.379 35.8558 149.533 35.3916C149.133 35.2922 148.901 35.0601 148.901 34.6954V32.8554C148.901 32.6067 149.133 32.358 149.466 32.358H149.599C151.196 32.5404 154.173 32.6896 155.155 32.6896C157.2 32.6896 157.5 32.0431 157.5 31.2142C157.5 30.6341 157.101 30.2694 156.036 29.656L151.495 27.0866C149.865 26.1749 148.718 24.6332 148.718 22.8595C148.718 19.7928 150.797 18.2677 155.005 18.2677C157.683 18.2677 159.213 18.5495 160.893 18.881C161.292 18.9805 161.492 19.2126 161.492 19.5773V21.3842C161.492 21.7488 161.292 21.9643 160.96 21.9643H160.843C159.912 21.8483 157.267 21.5997 155.387 21.5997C153.791 21.5997 153.109 21.9312 153.109 22.8927C153.109 23.39 153.608 23.6883 154.439 24.1525L158.781 26.6059C161.558 28.1641 161.958 29.7057 161.958 31.264C161.941 33.8997 159.779 36.005 155.454 36.005Z"
          fill="#F3951F"/>
    <path d="M173.385 35.7895C172.619 35.9055 171.921 36.005 171.222 36.005C167.613 36.005 166.149 35.2425 166.149 31.1314V21.5002L163.155 21.0692C162.806 21.0029 162.523 20.7874 162.523 20.4559V19.08C162.523 18.7485 162.806 18.4667 163.155 18.4667H166.149V15.9636C166.149 15.632 166.432 15.4165 166.781 15.3502L169.742 14.8529H169.875C170.158 14.8529 170.391 15.0021 170.391 15.3171V18.4667H173.268C173.617 18.4667 173.9 18.7485 173.9 19.08V20.8869C173.9 21.2184 173.617 21.5002 173.268 21.5002H170.391V31.1314C170.391 32.6565 170.49 32.8388 171.638 32.8388H173.335C173.75 32.8388 174 32.988 174 33.303V35.2425C174 35.5408 173.8 35.7232 173.385 35.7895Z"
          fill="#F3951F"/>
    <path d="M0 24.8984V29.1421L10.9114 14.1235V3.995L0 24.8984Z" fill="#F3951F"/>
    <path d="M10.9114 16.5769L0 29.9876V34.2976L10.9114 26.7385V16.5769Z" fill="#F3951F"/>
    <path d="M10.9114 29.7224L0 35.6569V40H10.9114V29.7224Z" fill="#F3951F"/>
    <path d="M12.6412 26.838L34.4474 29.1422V20.6714L12.6412 16.5769V26.838Z" fill="rgb(35,28,48)"/>
    <path d="M12.6412 29.7224V40H34.4474V31.5127L12.6412 29.7224Z" fill="rgb(35,28,48)"/>
    <path d="M31.3536 12.2834C31.3536 12.2834 31.4035 9.33275 31.4035 9.28302L12.6412 3.995V13.8582L34.464 18.2843V12.9299L31.3536 12.2834Z"
          fill="rgb(35,28,48)"/>
    <path d="M35.5951 11.4381V8.78577L32.7342 8.00665C32.7342 9.05099 32.7342 10.029 32.7175 10.8247L35.5951 11.4381Z"
          fill="#F3951F"/>
    <path d="M34.4474 6.86281V4.21051L31.6031 3.4314C31.6031 4.47574 31.6031 5.47035 31.5865 6.24946L34.4474 6.86281Z"
          fill="#F3951F"/>
    <path d="M38.4726 8.00665V5.78535L36.1939 5.13885C36.1939 6.00085 36.1939 6.8297 36.1772 7.49277L38.4726 8.00665Z"
          fill="#F3951F"/>
    <path d="M37.8405 3.99503V2.23788L36.1772 1.724C36.1772 2.42023 36.1772 3.0833 36.1606 3.59719L37.8405 3.99503Z"
          fill="#F3951F"/>
    <path d="M39.8033 1.67426V0.381268L38.4893 0C38.4893 0.513883 38.4893 0.994612 38.4893 1.39246L39.8033 1.67426Z"
          fill="#F3951F"/>
</svg>
