<svg width="414" height="93" xmlns="http://www.w3.org/2000/svg" viewBox="0 0 138 31">
    <defs>
        <clipPath id="clip-path">
            <path id="Rectangle_670" fill="none" d="M0 0H138V31.733H0z"/>
        </clipPath>
        <style>
            .cls-2{fill:#1C4ED2}
        </style>
    </defs>
    <path id="Path_1790" d="M246.229 61.115h-2.346v8.353h5.8v-1.933h-3.45z" class="cls-2" transform="translate(-197.287 -49.439)"/>
    <path id="Rectangle_669" d="M0 0H2.346V8.353H0z" class="cls-2" transform="translate(54.069 11.676)"/>
    <g id="Group_9493">
        <g id="Group_9492" clip-path="url(#clip-path)">
            <path id="Path_1791" d="M308.27 63.105a3.014 3.014 0 0 1 .973.162 3.822 3.822 0 0 1 .979.523l.094.067.707-1.65-.05-.045a3.291 3.291 0 0 0-1.209-.655 5.03 5.03 0 0 0-1.538-.238 4.5 4.5 0 0 0-2.207.519 3.616 3.616 0 0 0-1.446 1.458 4.5 4.5 0 0 0-.507 2.173 4.562 4.562 0 0 0 .507 2.189 3.606 3.606 0 0 0 1.446 1.464 4.5 4.5 0 0 0 2.207.519 5.031 5.031 0 0 0 1.538-.238 3.294 3.294 0 0 0 1.209-.655l.05-.045-.707-1.653-.094.067a3.808 3.808 0 0 1-.979.523 3.014 3.014 0 0 1-.973.162 1.732 1.732 0 0 1-1.395-.58 2.678 2.678 0 0 1-.5-1.757 2.63 2.63 0 0 1 .5-1.745 1.748 1.748 0 0 1 1.4-.57" class="cls-2" transform="translate(-245.971 -49.564)"/>
            <path id="Path_1792" d="M349.259 69.468h6.014v-1.842h-3.726v-1.483h3.485V64.3h-3.485v-1.344h3.726v-1.841h-6.014z" class="cls-2" transform="translate(-282.531 -49.438)"/>
            <path id="Path_1793" d="M394.789 65.551l-3.561-4.437h-1.712v8.353h2.2v-4.453l3.561 4.454h1.735v-8.353h-2.22z" class="cls-2" transform="translate(-315.096 -49.438)"/>
            <path id="Path_1794" d="M443.75 65.351a3.094 3.094 0 0 0-.9-.549 7.415 7.415 0 0 0-1.4-.408 7.237 7.237 0 0 1-1-.27 1.01 1.01 0 0 1-.414-.246.408.408 0 0 1-.1-.266.574.574 0 0 1 .3-.508 1.623 1.623 0 0 1 .868-.2 3.614 3.614 0 0 1 1.123.186 4.1 4.1 0 0 1 1.094.558l.094.066.722-1.655-.051-.045a2.828 2.828 0 0 0-.8-.481 5.492 5.492 0 0 0-1.053-.307 6.171 6.171 0 0 0-1.147-.108 4.242 4.242 0 0 0-1.762.344 2.9 2.9 0 0 0-1.19.948 2.3 2.3 0 0 0-.431 1.363 2.612 2.612 0 0 0 .134.858 1.744 1.744 0 0 0 .472.7 2.983 2.983 0 0 0 .912.544 8 8 0 0 0 1.442.4 6.757 6.757 0 0 1 .948.258 1.024 1.024 0 0 1 .42.252.43.43 0 0 1 .1.282.485.485 0 0 1-.3.433 2.161 2.161 0 0 1-.991.179 4.611 4.611 0 0 1-1.289-.186 4.512 4.512 0 0 1-1.211-.559l-.092-.06-.735 1.657.061.044a3.845 3.845 0 0 0 .911.476 6.39 6.39 0 0 0 1.13.307 6.825 6.825 0 0 0 1.2.108 5.291 5.291 0 0 0 1.914-.309 2.639 2.639 0 0 0 1.216-.894 2.318 2.318 0 0 0 .421-1.386 2.391 2.391 0 0 0-.14-.832 1.807 1.807 0 0 0-.477-.7" class="cls-2" transform="translate(-353.922 -49.438)"/>
            <path id="Path_1795" d="M482.166 69.468h6.014v-1.842h-3.726v-1.483h3.485V64.3h-3.485v-1.344h3.726v-1.841h-6.014z" class="cls-2" transform="translate(-390.045 -49.438)"/>
            <path id="Path_1796" d="M533.151 61.115l-1.69 5.031-1.68-5.031h-1.6l-1.747 4.943-1.612-4.943h-2.394l2.98 8.353h1.843l1.673-4.664 1.642 4.664h1.834l2.992-8.353z" class="cls-2" transform="translate(-422.611 -49.439)"/>
            <path id="Path_1797" d="M590.181 61.115h-1.818l-3.907 8.353h2.368l.727-1.685h3.49l.724 1.685h2.335l-3.892-8.3zm-1.85 4.86l.969-2.246.965 2.246z" class="cls-2" transform="translate(-472.792 -49.439)"/>
            <path id="Path_1798" d="M649.445 66.1a1.475 1.475 0 0 0-.271-.159 2.531 2.531 0 0 0 .679-.426 2.607 2.607 0 0 0 .034-3.738 3.43 3.43 0 0 0-2.292-.665H643.7v8.353h2.312v-3.173h.684a1.2 1.2 0 0 1 .478.1.531.531 0 0 1 .292.3l1.079 2.778h2.487l-1.014-2.56a1.762 1.762 0 0 0-.577-.8m-3.452-3.169h1.257a1.773 1.773 0 0 1 .949.19.664.664 0 0 1 .262.6.653.653 0 0 1-.263.581 1.73 1.73 0 0 1-.948.2h-1.257z" class="cls-2" transform="translate(-520.721 -49.438)"/>
            <path id="Path_1799" d="M696.833 62.956v-1.841h-6.014v8.353h6.014v-1.842h-3.726v-1.483h3.485V64.3h-3.485v-1.344z" class="cls-2" transform="translate(-558.833 -49.438)"/>
            <path id="Path_1800" d="M104.7 10.631l-3.412 29.623 7.651-3.573-4.223-26.058z" class="cls-2" transform="translate(-81.935 -8.594)"/>
            <path id="Path_1801" d="M40.8 27.262l-1.577 20.851 4.353-19.458z" class="cls-2" transform="translate(-31.729 -22.053)"/>
            <path id="Path_1802" d="M52.533 17.981l-4.578 20.464L59.739 14.4z" class="cls-2" transform="translate(-38.793 -11.648)"/>
            <path id="Path_1803" d="M130.426.24L127.9 1.494l4.221 26.139L130.457.255z" class="cls-2" transform="translate(-103.465 -.194)"/>
            <path id="Path_1804" d="M144.216 0l1.684 27.108 7.013-21.864zm.427.7l7.816 4.712-6.3 19.645z" class="cls-2" transform="translate(-116.663)"/>
            <path id="Path_1805" d="M50.316 37.528l9.156 4.592 3.189-29.28zm8.835 4l-8.323-4.174 11.222-22.44z" class="cls-2" transform="translate(-40.703 -10.386)"/>
            <path id="Path_1806" d="M0 32.209L6.932 48.4 8.5 28zM6.67 46.82L.493 32.39l7.577-3.754z" class="cls-2" transform="translate(0 -22.646)"/>
        </g>
    </g>
</svg>
