<svg xmlns="http://www.w3.org/2000/svg" xmlns:xlink="http://www.w3.org/1999/xlink" width="277px" height="52px"
     viewBox="0 0 277 52">
    <title>Jobboost logo white</title>
    <desc>Created with Sketch.</desc>
    <g id="Symbols" stroke="none" stroke-width="1" fill="none" fill-rule="evenodd">
        <g id="Footer" transform="translate(-174.000000, -76.000000)">
            <g id="Jobboost-logo-white" transform="translate(174.000000, 76.000000)">
                <path d="M30.1056919,7.07141435 L23.5509622,34.8970879 C22.8276143,37.98027 21.9515324,40.6746953 20.9208838,42.9833495 C19.8896243,45.2914066 18.1673964,47.3707481 15.7535892,49.2231655 C13.3391712,51.0743885 10.0706649,52 5.94745953,52 C4.11465228,52 2.13216577,51.6811119 0,51.0445301 L1.90306486,44.584956 C2.76631708,44.722902 3.55992261,44.7921736 4.28204867,44.7921736 C6.07942165,44.7921736 7.54627838,44.4601478 8.68322981,43.7972905 C9.81957031,43.1344332 10.792791,41.9281524 11.6035027,40.1802396 C12.4142144,38.4323267 13.2157621,35.8441975 14.0087567,32.4164491 L20.0356379,7.07141435 L14.7754811,7.07141435 L16.2820487,1 L36,1 L34.5465839,7.07141435 L30.1056919,7.07141435 Z"
                      id="Fill-1" fill="black"/>
                <path d="M39.6314652,34.8233515 C41.2804228,34.8233515 42.6976383,34.199637 43.881287,32.9516031 C45.0655439,31.7047792 45.9560175,30.1772535 46.5527077,28.3714459 C47.1487898,26.5656382 47.4474391,24.8602541 47.4474391,23.2546884 C47.4474391,21.754386 47.0788414,20.5287356 46.3422543,19.5771325 C45.6050589,18.6267393 44.5698226,18.1506352 43.2365452,18.1506352 C41.5529175,18.1506352 40.135702,18.7882638 38.9867234,20.061706 C37.8377449,21.3357532 36.9825496,22.8753781 36.4211376,24.6811857 C35.8591174,26.4869933 35.5787156,28.1929825 35.5787156,29.7979431 C35.5787156,31.2988506 35.9381895,32.5117967 36.6577457,33.4361766 C37.3766937,34.3605566 38.3681362,34.8233515 39.6314652,34.8233515 M56,24.0659407 C56,27.2068966 55.2451655,30.0725953 53.7367129,32.6642468 C52.2276522,35.2552934 50.1796846,37.292196 47.5915936,38.7749546 C45.0041109,40.2577132 42.1666387,41 39.079177,41 C36.7106632,41 34.6182936,40.5245009 32.8026763,39.5741077 C30.987059,38.6225045 29.5661941,37.2831216 28.5394731,35.5559589 C27.5133605,33.8281912 27,31.8130672 27,29.5099819 C27,26.4047187 27.7104325,23.5124017 29.1319057,20.8336358 C30.5527707,18.1554749 32.5745837,16.0139141 35.1973447,14.4083485 C37.8201057,12.8033878 40.7542892,12 43.9998951,12 C46.2978523,12 48.363459,12.5063521 50.1973237,13.5184513 C52.0299719,14.5305505 53.4557028,15.9485783 54.4733001,17.7713249 C55.4908973,19.5952813 56,21.6932849 56,24.0659407"
                      id="Fill-3" fill="black"/>
                <path d="M71.9396609,33.5896906 C73.453808,33.5896906 74.7615916,33.1031092 75.862401,32.1281685 C76.9625999,31.1544131 77.7904965,29.8979545 78.3454802,28.3593854 C78.8998535,26.8202237 79.1770401,25.1886056 79.1770401,23.4615677 C79.1770401,21.8892165 78.8210934,20.6499453 78.1073684,19.7437542 C77.3942539,18.8375631 76.3679308,18.3847638 75.0302306,18.3847638 C73.5154729,18.3847638 72.1643408,18.9448362 70.9756132,20.0643882 C69.7868855,21.1839402 68.9015979,22.5476719 68.3209713,24.1538052 C67.7397342,25.7611239 67.4491156,27.281913 67.4491156,28.7179503 C67.4491156,30.1202055 67.8539057,31.281837 68.6640966,32.2052155 C69.4736769,33.128594 70.5659387,33.5896906 71.9396609,33.5896906 L71.9396609,33.5896906 Z M70.3284374,15.7438302 C72.6002686,13.2652878 75.2500262,12.025424 78.278931,12.025424 C81.2376234,12.025424 83.5973729,13.0857091 85.3581795,15.2050939 C87.1189861,17.3250714 88,20.0768342 88,23.4615677 C88,26.2305179 87.4053309,28.8933803 86.2166033,31.4489697 C85.0278757,34.004559 83.3330077,36.0688256 81.1319994,37.6411768 C78.9303806,39.2141207 76.3862471,40 73.4983777,40 C70.2930259,40 67.624952,38.4958057 65.4941562,35.4874172 L64.5172871,39.6414352 L53,39.6414352 L54.3999756,33.9227707 L57.4380386,33.9227707 L63.8829327,6.7690414 L60.1586191,6.7690414 L61.506088,1 L73.735879,1 L70.19656,15.6412984 L70.3284374,15.7438302 Z"
                      id="Fill-5" fill="black"/>
                <path d="M113.269295,10.7565798 C113.269295,8.20363497 111.886688,6.92656442 109.121475,6.92656442 L105.626067,6.92656442 L103.330566,16.8380675 L107.138915,16.8380675 C109.138358,16.8380675 110.660853,16.333819 111.703989,15.3241258 C112.747727,14.3150307 113.269295,12.7927147 113.269295,10.7565798 M110.504082,27.0085736 C110.504082,25.6286196 110.065121,24.5070706 109.186596,23.6445245 C108.308071,22.7819785 107.034601,22.3501074 105.364981,22.3501074 L102.05167,22.3501074 L99.2870594,34.2283589 L104.086688,34.2283589 C106.22602,34.2283589 107.829917,33.4956135 108.899583,32.0289264 C109.969249,30.5628374 110.504082,28.888589 110.504082,27.0085736 M123,10.5238957 C123,15.5095552 120.02616,18.6415184 114.077876,19.9173926 C118.095455,22.2125307 120.103942,25.1973466 120.103942,28.8718405 C120.103942,31.4074387 119.387013,33.5171472 117.951948,35.1991718 C116.517486,36.8811963 114.773701,38.1020399 112.7218,38.8605061 C110.669295,39.6201687 108.756679,40 106.982143,40 L84,40 L85.434462,33.8921933 L89.295269,33.8921933 L95.5824212,7.08148773 L91.6956865,7.08148773 L93.0782931,1 L111.182421,1 C114.817115,1 117.695083,1.83742331 119.816929,3.51047546 C121.938776,5.18412577 123,7.52173313 123,10.5238957"
                      id="Fill-7" fill="black"/>
                <path d="M132.63173,34.8233515 C134.280722,34.8233515 135.697968,34.199637 136.881641,32.9516031 C138.065923,31.7047792 138.956415,30.1772535 139.553118,28.3714459 C140.148604,26.5656382 140.447868,24.8602541 140.447868,23.2546884 C140.447868,21.754386 140.079263,20.5287356 139.342052,19.5771325 C138.605449,18.6267393 137.570191,18.1506352 136.236886,18.1506352 C134.553223,18.1506352 133.135978,18.7882638 131.986975,20.061706 C130.837972,21.3357532 129.982759,22.8753781 129.421335,24.6811857 C128.859303,26.4869933 128.578895,28.1929825 128.578895,29.7979431 C128.578895,31.2988506 128.938377,32.5117967 129.657948,33.4361766 C130.376911,34.3605566 131.368375,34.8233515 132.63173,34.8233515 M149,24.0659407 C149,27.2068966 148.245758,30.0725953 146.736665,32.6642468 C145.228181,35.2552934 143.180171,37.292196 140.592026,38.7749546 C138.004489,40.2577132 135.166957,41 132.07943,41 C129.710867,41 127.618453,40.5245009 125.802798,39.5741077 C123.987143,38.6225045 122.566248,37.2831216 121.539505,35.5559589 C120.513371,33.8281912 120,31.8130672 120,29.5099819 C120,26.4047187 120.710447,23.5124017 122.13195,20.8336358 C123.552845,18.1554749 125.574701,16.0139141 128.197517,14.4083485 C130.820333,12.8033878 133.754578,12 137.000252,12 C139.298257,12 141.363907,12.5063521 143.197202,13.5184513 C145.030497,14.5305505 146.456258,15.9485783 147.473876,17.7713249 C148.490887,19.5952813 149,21.6932849 149,24.0659407"
                      id="Fill-9" fill="black"/>
                <path d="M160.631465,34.8233515 C162.280423,34.8233515 163.697638,34.199637 164.881287,32.9516031 C166.066152,31.7047792 166.956017,30.1772535 167.552708,28.3714459 C168.14879,26.5656382 168.447439,24.8602541 168.447439,23.2546884 C168.447439,21.754386 168.078841,20.5287356 167.342254,19.5771325 C166.605059,18.6267393 165.569823,18.1506352 164.237153,18.1506352 C162.552917,18.1506352 161.135702,18.7882638 159.986723,20.061706 C158.837745,21.3357532 157.98255,22.8753781 157.421746,24.6811857 C156.859726,26.4869933 156.579324,28.1929825 156.579324,29.7979431 C156.579324,31.2988506 156.938798,32.5117967 157.657746,33.4361766 C158.377302,34.3605566 159.368744,34.8233515 160.631465,34.8233515 M177,24.0659407 C177,27.2068966 176.245165,30.0725953 174.736713,32.6642468 C173.227652,35.2552934 171.179685,37.292196 168.592202,38.7749546 C166.004111,40.2577132 163.166639,41 160.079177,41 C157.710663,41 155.618902,40.5245009 153.802676,39.5741077 C151.987059,38.6225045 150.566194,37.2831216 149.540081,35.5559589 C148.51336,33.8281912 148,31.8130672 148,29.5099819 C148,26.4047187 148.710432,23.5124017 150.131906,20.8336358 C151.552771,18.1554749 153.574584,16.0139141 156.197345,14.4083485 C158.820106,12.8033878 161.754289,12 165.000503,12 C167.298461,12 169.363459,12.5063521 171.197324,13.5184513 C173.03058,14.5305505 174.456311,15.9485783 175.4733,17.7713249 C176.490897,19.5952813 177,21.6932849 177,24.0659407"
                      id="Fill-11" fill="black"/>
                <path d="M196.695335,14.6636452 L197.011054,13.251732 L203,13.251732 L201.108722,21.0163807 L195.460996,21.0163807 C195.145884,19.9744901 194.546018,19.1977339 193.662005,18.6843639 C192.777385,18.1721593 191.696047,17.9157656 190.417385,17.9157656 C189.367013,17.9157656 188.394963,18.1045646 187.501842,18.4833279 C186.608722,18.8615086 186.161858,19.4284882 186.161858,20.1848495 C186.161858,20.8066041 186.573507,21.3234704 187.396805,21.7354484 C188.219496,22.1474264 189.690625,22.58854 191.809585,23.0587893 C194.85688,23.7982519 197.150699,24.7859501 198.691651,26.0207187 C200.232602,27.2560699 201.003685,29.0082875 201.003685,31.2773713 C201.003685,34.1006151 199.812453,36.2607316 197.431203,37.7565555 C195.049347,39.2523794 191.931622,40 188.079851,40 C184.892304,40 182.31798,39.4202007 180.35688,38.2606021 L180.015053,39.748268 L174,39.748268 L176.20639,30.6218194 L181.644042,30.6218194 C182.291265,33.6140499 184.437547,35.109291 188.079851,35.109291 C191.669333,35.109291 193.464681,34.2264811 193.464681,32.4620265 C193.464681,31.7400453 193.026924,31.1637423 192.151411,30.7354484 C191.275291,30.3065717 189.620802,29.8153448 187.186731,29.2606021 C184.17465,28.5380382 181.985261,27.5678213 180.619169,26.348786 C179.253685,25.1303334 178.570639,23.4200712 178.570639,21.2185821 C178.570639,18.6971836 179.638619,16.697313 181.775793,15.2183878 C183.911754,13.7394626 186.731367,13 190.233418,13 C192.790135,13 194.94431,13.5541599 196.695335,14.6636452"
                      id="Fill-13" fill="black"/>
                <path d="M220,12.8868494 L218.716364,18.7590699 L213.505011,18.7590699 L210.609556,31.360502 C210.475141,32.2090853 210.408806,32.7201571 210.408806,32.8931167 C210.408806,33.8978442 210.962178,34.3999076 212.070085,34.3999076 C213.093619,34.3999076 214.394129,33.9585002 215.972199,33.0750847 L214.536691,39.337065 C212.237667,40.4456883 209.988686,41 207.790328,41 C206.027801,41 204.621969,40.5015399 203.573996,39.5058208 C202.524277,38.5101016 202,37.1636588 202,35.4658916 C202,34.3572682 202.21006,32.8330613 202.629017,30.8920696 L205.348161,18.7590699 L202.251956,18.7590699 L203.560613,12.8868494 L206.631797,12.8868494 L207.563393,8.96342778 L217.205211,2 L214.788647,12.8868494 L220,12.8868494 Z"
                      id="Fill-15" fill="black"/>
                <polygon id="Fill-17" fill="black" points="219 40 221.052806 31 230 31 227.947194 40"/>
                <path d="M251,4.58362175 C251,5.83380985 250.542599,6.91004304 249.627798,7.81292323 C248.712996,8.71580341 247.605477,9.16664159 246.303409,9.16664159 C245.037324,9.16664159 243.954809,8.71580341 243.058303,7.81292323 C242.161188,6.91004304 241.712325,5.83380985 241.712325,4.58362175 C241.712325,3.29912421 242.15143,2.21386222 243.032079,1.32843772 C243.910898,0.443013212 245.001342,0 246.303409,0 C247.639629,0 248.756907,0.443013212 249.654632,1.32843772 C250.551747,2.21386222 251,3.29912421 251,4.58362175 L251,4.58362175 Z M247.596329,34.1926746 L246.250961,40 L231,40 L232.29231,34.1926746 L235.38007,34.1926746 L239.047204,18.515665 L235.327011,18.515665 L236.672989,12.6306919 L248.889248,12.6306919 L243.875526,34.1926746 L247.596329,34.1926746 Z"
                      id="Fill-19" fill="black"/>
                <path d="M260.631465,34.8233515 C262.280423,34.8233515 263.697638,34.199637 264.881287,32.9516031 C266.066152,31.7047792 266.956017,30.1772535 267.552708,28.3714459 C268.14879,26.5656382 268.447439,24.8602541 268.447439,23.2546884 C268.447439,21.754386 268.078841,20.5287356 267.342254,19.5771325 C266.605059,18.6267393 265.569823,18.1506352 264.237153,18.1506352 C262.552917,18.1506352 261.135702,18.7882638 259.986723,20.061706 C258.837745,21.3357532 257.98255,22.8753781 257.421746,24.6811857 C256.859726,26.4869933 256.579324,28.1929825 256.579324,29.7979431 C256.579324,31.2988506 256.938798,32.5117967 257.657746,33.4361766 C258.377302,34.3605566 259.368744,34.8233515 260.631465,34.8233515 M277,24.0659407 C277,27.2068966 276.245165,30.0725953 274.736713,32.6642468 C273.227652,35.2552934 271.179685,37.292196 268.592202,38.7749546 C266.004111,40.2577132 263.166639,41 260.079177,41 C257.710663,41 255.618902,40.5245009 253.802676,39.5741077 C251.987059,38.6225045 250.566194,37.2831216 249.540081,35.5559589 C248.51336,33.8281912 248,31.8130672 248,29.5099819 C248,26.4047187 248.710432,23.5124017 250.131906,20.8336358 C251.552771,18.1554749 253.574584,16.0139141 256.197345,14.4083485 C258.820106,12.8033878 261.754289,12 265.000503,12 C267.298461,12 269.363459,12.5063521 271.197324,13.5184513 C273.03058,14.5305505 274.456311,15.9485783 275.4733,17.7713249 C276.490897,19.5952813 277,21.6932849 277,24.0659407"
                      id="Fill-21" fill="black"/>
                <polygon id="Fill-23" fill="#A41D9D" points="214 44 212.680574 49 82 49 83.3714146 44"/>
            </g>
        </g>
    </g>
</svg>
